<?xml version="1.0" encoding="UTF-8"?>

 <svg
          width="355px"
          height="397px"
          viewBox="0 0 355 397"
          version="1.1"
          xmlns="http://www.w3.org/2000/svg"
          xmlns:xlink="http://www.w3.org/1999/xlink"
        >
          <g
            id="plLogPage-1"
            stroke="none"
            stroke-width="1"
            fill="none"
            fill-rule="evenodd"
            opacity="0.05"
          >
            <g
              id="plLog1"
              transform="translate(0.000000, -491.000000)"
              fill-rule="nonzero"
            >
              <g
                id="plLogGroup-3"
                transform="translate(-35.000000, 491.000000)"
              >
                <g
                  id="plLogGroup"
                  transform="translate(0.000000, 142.000000)"
                  fill="#0134A9"
                >
                  <ellipse
                    id="plLogOval"
                    cx="104.719124"
                    cy="223.079358"
                    rx="26.3659011"
                    ry="26.6541344"
                  ></ellipse>
                  <ellipse
                    id="plLogOval"
                    cx="27.2954457"
                    cy="80.9239738"
                    rx="26.3659011"
                    ry="26.6541344"
                  ></ellipse>
                  <ellipse
                    id="plLogOval"
                    cx="285.095368"
                    cy="27.6157049"
                    rx="26.3659011"
                    ry="26.6541344"
                  ></ellipse>
                  <ellipse
                    id="plLogOval"
                    cx="285.095368"
                    cy="134.655324"
                    rx="26.3659011"
                    ry="26.6541344"
                  ></ellipse>
                  <ellipse
                    id="plLogOval"
                    cx="285.095368"
                    cy="223.079358"
                    rx="26.3659011"
                    ry="26.6541344"
                  ></ellipse>
                  <ellipse
                    id="plLogOval"
                    cx="194.697992"
                    cy="179.078882"
                    rx="26.3659011"
                    ry="26.6541344"
                  ></ellipse>
                  <path
                    d="M263.751543,150.732421 C263.751543,150.732421 277.562253,165.963355 276.72524,179.501963 C276.306734,195.57906 262.91453,208.271505 262.91453,208.271505 L303.928154,204.463772 C303.928154,204.463772 291.791469,189.655919 291.791469,179.925045 C291.791469,165.540274 303.509648,154.540155 303.509648,154.540155 L263.751543,150.732421 Z"
                    id="plLogShape"
                  ></path>
                </g>
                <g id="plLogGroup" fill="#000">
                  <ellipse
                    id="plLogOval"
                    cx="194.904825"
                    cy="26.6512195"
                    rx="26.3936255"
                    ry="26.6512195"
                  ></ellipse>
                  <ellipse
                    id="plLogOval"
                    cx="104.831341"
                    cy="78.6845528"
                    rx="26.3936255"
                    ry="26.6512195"
                  ></ellipse>
                  <ellipse
                    id="plLogOval"
                    cx="104.831341"
                    cy="169.214092"
                    rx="26.3936255"
                    ry="26.6512195"
                  ></ellipse>
                  <ellipse
                    id="plLogOval"
                    cx="104.831341"
                    cy="276.242005"
                    rx="26.3936255"
                    ry="26.6512195"
                  ></ellipse>
                  <ellipse
                    id="plLogOval"
                    cx="285.397255"
                    cy="78.6845528"
                    rx="26.3936255"
                    ry="26.6512195"
                  ></ellipse>
                  <ellipse
                    id="plLogOval"
                    cx="362.902346"
                    cy="124.795393"
                    rx="26.3936255"
                    ry="26.6512195"
                  ></ellipse>
                  <ellipse
                    id="plLogOval"
                    cx="27.3262506"
                    cy="124.795393"
                    rx="26.3936255"
                    ry="26.6512195"
                  ></ellipse>
                  <ellipse
                    id="plLogOval"
                    cx="362.902346"
                    cy="222.516531"
                    rx="26.3936255"
                    ry="26.6512195"
                  ></ellipse>
                  <ellipse
                    id="plLogOval"
                    cx="362.902346"
                    cy="320.660705"
                    rx="26.3936255"
                    ry="26.6512195"
                  ></ellipse>
                  <ellipse
                    id="plLogOval"
                    cx="27.3262506"
                    cy="320.660705"
                    rx="26.3936255"
                    ry="26.6512195"
                  ></ellipse>
                  <ellipse
                    id="plLogOval"
                    cx="194.904825"
                    cy="124.795393"
                    rx="26.3936255"
                    ry="26.6512195"
                  ></ellipse>
                  <ellipse
                    id="plLogOval"
                    cx="194.904825"
                    cy="418.381843"
                    rx="26.3936255"
                    ry="26.6512195"
                  ></ellipse>
                  <path
                    d="M104.831341,105.758808 C104.831341,105.758808 130.80602,101.10542 144.631253,108.720054 C160.970164,118.026829 173.957503,140.870732 173.957503,140.870732 L189.458521,98.5672087 C189.458521,98.5672087 169.768039,104.489702 153.848074,97.298103 C138.347056,90.1065041 129.968127,69.3777778 129.968127,69.3777778 L104.831341,105.758808 Z"
                    id="plLogShape"
                  ></path>
                  <path
                    d="M80.9513944,181.059079 C80.9513944,181.059079 97.7092519,202.633875 96.871359,218.709214 C96.0334661,237.745799 82.2082337,261.435772 82.2082337,261.435772 L125.359717,259.320596 C125.359717,259.320596 111.115538,239.43794 110.696591,221.670461 C110.277645,204.326016 124.521824,186.558537 124.521824,186.558537 L80.9513944,181.059079 Z"
                    id="plLogShape"
                  ></path>
                  <path
                    d="M195.323772,279.203252 C163.856401,279.203252 138.347056,253.444944 138.347056,221.670461 C138.347056,189.895977 163.856401,164.137669 195.323772,164.137669 C226.791143,164.137669 252.300487,189.895977 252.300487,221.670461 C252.300487,253.444944 226.791143,279.203252 195.323772,279.203252 Z M213.757415,220.82439 C222.318391,220.82439 229.258433,213.816615 229.258433,205.172087 C229.258433,196.527558 222.318391,189.519783 213.757415,189.519783 C205.196439,189.519783 198.256397,196.527558 198.256397,205.172087 C198.256397,213.816615 205.196439,220.82439 213.757415,220.82439 Z"
                    id="plLogCombined-Shape"
                  ></path>
                </g>
              </g>
            </g>
          </g>
        </svg>
